<?xml version="1.0" encoding="UTF-8"?>
<svg xmlns="http://www.w3.org/2000/svg" viewBox="0 0 357.75 260.71">
  <defs>
    <style>
      .cls-1 {
        stroke-linecap: square;
        stroke-width: 2px;
      }

      .cls-1, .cls-2 {
        stroke: #010b13;
        stroke-linejoin: round;
      }

      .cls-1, .cls-2, .cls-3 {
        fill: #010b13;
      }

      .cls-4 {
        fill: #121619;
      }

      .cls-5, .cls-6, .cls-7 {
        fill: #c33;
      }

      .cls-8 {
        opacity: .9;
      }

      .cls-2 {
        stroke-linecap: round;
      }

      .cls-2, .cls-7 {
        stroke-width: .25px;
      }

      .cls-6 {
        stroke-width: .5px;
      }

      .cls-6, .cls-7 {
        stroke: #c33;
        stroke-miterlimit: 10;
      }
    </style>
  </defs>
  <g id="Layer_3" data-name="Layer 3">
    <g class="cls-8">
      <path class="cls-3" d="M222.15,132.46c0,.1-.01.2-.01.3-14.8,3.09-29.96,6.25-29.97,6.25-.54.13-.87.67-.73,1.21.13.53.67.86,1.2.73l29.48-7.19c-.18,9.63-2.32,18.76-6.04,27.04-12.47-3.09-23.63-5.86-23.63-5.86-.54-.12-1.07.23-1.19.77-.11.54.23,1.07.77,1.18l23.55,5.01c-3.57,7.6-8.49,14.44-14.45,20.22-8.43-6.99-15.34-12.71-15.34-12.71-.44-.34-1.06-.26-1.4.18-.34.43-.26,1.06.18,1.4l15.59,12.06c-5.61,5.24-12.1,9.56-19.21,12.72-4.16-9.07-7.43-16.21-7.44-16.21-.24-.5-.84-.7-1.34-.45-.49.24-.69.85-.45,1.34l7.95,15.88c-6.84,2.87-14.23,4.65-21.96,5.18.19-10.12.34-18.13.34-18.14,0-.55-.46-.99-1.02-.98-.55,0-.99.46-.37,1.01v18.21c-1.47.06-2.61.09-3.75.09-6.92,0-13.59-1.03-19.89-2.91,5.14-10.18,9.44-18.68,9.44-18.69.23-.5.01-1.09-.49-1.33-.5-.23-1.09,0-1.33.49l-8.87,19.14c-8.3-2.66-15.92-6.84-22.53-12.22,10.7-8.2,20.59-15.79,20.59-15.79.43-.35.49-.98.14-1.41s-.98-.49-1.41-.14l-20.2,16.61c-7.36-6.19-13.41-13.89-17.68-22.62,15.41-3.21,31.99-6.67,31.99-6.67.54-.13.87-.67.74-1.21-.13-.53-.68-.86-1.21-.73l-31.92,7.78c-4.23-8.96-6.61-18.97-6.61-29.54,0-.62.03-1.22.04-1.83,16.75,4.16,38.67,9.6,38.68,9.6.54.12,1.07-.23,1.19-.77.11-.54-.23-1.07-.77-1.18l-39.08-8.31c.43-12.24,4.02-23.66,10.01-33.48,13.41,11.12,35.3,29.27,35.31,29.27.44.34,1.07.26,1.4-.18.34-.43.26-1.06-.18-1.4l-36.26-28.04-.03-.03c6.54-10.59,15.85-19.26,26.92-25.05,7.04,15.36,20.42,44.55,20.43,44.56.24.49.85.69,1.34.44.49-.24.69-.85.45-1.34l-21.91-43.81c9.5-4.91,20.27-7.69,31.7-7.69,1.62,0,3.21.07,4.8.18-.32,17.04-.92,48.39-.92,48.4,0,.55.47.99,1.02.98.55,0,.99-.46.85-1.01v-48.34c12.09.94,23.82,5.28,33.68,12.13l-.03.06c-7.89,15.63-19.93,39.44-19.93,39.45-.23.5,0,1.1.49,1.33s1.09.01,1.33-.49l18.56-40.06c9.41,6.64,17.08,15.54,22.23,25.94-13.44,10.3-29.98,22.99-29.98,22.99-.43.35-.49.98-.14,1.41s.98.49,1.41.14l29.05-23.88c4.37,9.08,6.82,19.26,6.82,30.01Z"/>
    </g>
  </g>
  <g id="Layer_4" data-name="Layer 4">
    <g>
      <path class="cls-4" d="M194.02,144.13c5.78,23.73-9.1,44.07-32.67,48.5-22.34,4.2-41.82-10.14-45.54-35.5s13.8-44.46,33.55-48.55c23.62-4.89,38.53,10.36,44.66,35.54Z"/>
      <path class="cls-5" d="M194.26,144.07c4.24,16.52-.97,34.8-15.82,44.28-27.46,17-57.95.64-63.79-30.06-6.76-29.22,20.79-58.79,50.62-52.27,17.53,3.99,25.31,22.26,29,38.05h0ZM193.78,144.19c-3.54-14.98-13.4-30.63-29.52-33.42-15.13-2.63-30.96,4.95-39.67,17.58-9.11,12.7-10.01,30.73-2.78,44.7,4.73,9.46,14.04,16.69,24.56,18.13,15.26,2.05,31.77-4.6,41.24-16.76,6.59-8.33,8.85-19.87,6.17-30.22h0Z"/>
    </g>
    <path class="cls-7" d="M348.46,87.83c.99,2.9.33,4.57-2.38,5.33-2.57.72-6.44.33-7.2-2.78-.73-2.98,1.67-5.32,3.94-6,2.71-.82,4.6.38,5.65,3.45Z"/>
  </g>
  <g id="Layer_1" data-name="Layer 1">
    <path class="cls-5" d="M136.1,133.14c1.1-1.33,2.26-2.35,3.43-3.39,1.35-.26,2.67-.61,4.01-.91,3.99-.93,12.02-2.8,16-3.73,0,0,4-.93,4-.93,1.51.43,3.01.84,4.57,1.5-1.11,1.29-2.27,2.32-3.43,3.37l-4,.93c-3.99.93-12.02,2.8-16,3.73-1.33.32-2.67.6-4,.96-1.5-.42-3-.82-4.57-1.53h0Z"/>
    <g class="cls-8">
      <line class="cls-1" x1="173.41" y1="217.98" x2="178.7" y2="244.5"/>
      <g>
        <line class="cls-3" x1="179.29" y1="247.5" x2="178.18" y2="241.9"/>
        <path class="cls-3" d="M179.29,247.5c-.46-.15-.79-.33-1.13-.5-.07-.47-.32-1.62-.41-2.1-.09-.46-.33-1.65-.42-2.1.25-.29.49-.58.84-.9.44.15.78.33,1.12.5.09.44.33,1.64.42,2.1.1.49.31,1.63.43,2.1-.25.29-.49.58-.85.9h0Z"/>
      </g>
      <path class="cls-2" d="M172.1,198.99l3.61,17.09c.05.23-.1.45-.32.5l-4.36.92c-.23.05-.45-.1-.5-.32l-3.58-16.91"/>
      <rect class="cls-2" x="167.42" y="204.44" width="1.07" height="6.64" rx=".42" ry=".42" transform="translate(-.55 415.07) rotate(-101.94)"/>
      <rect class="cls-2" x="163.68" y="205.11" width="2.28" height="6.61" rx=".42" ry=".42" transform="translate(-39.92 39.05) rotate(-12.06)"/>
    </g>
  </g>
  <g id="Layer_2" data-name="Layer 2">
    <g>
      <path class="cls-7" d="M129.94,130.54l-59.98,43.81c-2.34,1.7-4.49,1.63-4.59-.85l-2.59-59.9-42.02,77.77c-2.1,3.9-4.05,3.54-4.83-.07l-6.69-31.33c-.93-4.4-.29-5.67,3.12-5.67h24.84l25.57-45.09-.34-8.86,1.41-1.84c1.22-1.56,2.88-1.49,2.88-.43l2.93,70.75c.05,1.21.78,1.21,1.46.71l63.35-46.86c.44-.35.88-.57,3.47-1.56,1.46-.64,2,.35,1.32,1.56l-27.14,47.71,28.65-11.63s0,2.84-2.39,3.83l-32.16,13.33c-1.51.64-2-.35-1.32-1.56l25.04-43.81ZM11.88,157.48c-.98,0-1.27.64-.98,1.7l7.13,24.53c.44,1.49,1.32,1.77,2.05.5l15.28-26.73H11.88Z"/>
      <path class="cls-7" d="M233.59,157.55c-3.27,0-2.98-3.19-2.98-3.62,7.76-1.98,36.36-9.57,57.64-24.67,4.44-3.19,4.39-3.26-.68-3.26l-48.56.28-37.24,65.15c-2.2,3.83-4.1,3.47-4.88-.07l-14.45-64.8c-.98-4.4-.29-5.67,3.12-5.67h51.68l12.98-22.61,3.47-1.56c1.51-.71,2,.35,1.32,1.56l-12.93,22.61h54.95c10.59,0,10.49,2.41,1.03,8.93-24.79,17.08-53.59,24.17-55,24.53h8.59c5.52,0,6,.99,7.13,6.66l2.05,10.28,31.14-12.55s0,2.84-2.34,3.83l-30.45,12.97c-1.12.5-2.29-.35-2.49-1.56l-2.63-14.39c-.29-1.63-.83-2.06-2.34-2.06h-18.11ZM201.04,184.27l33.14-57.99-48.46.28c-.98,0-1.27.64-.98,1.7l14.3,55.51c.34,1.49,1.27,1.77,2,.5Z"/>
      <path class="cls-7" d="M314.7,145.64c5.66-21.69,15.23-40.9,25.18-48.14,2.34-1.7,3.71-1.84,3.9-.28.24,1.56-.68,4.47-3.27,9.71-4.1,8.29-23.18,42.68-25.04,45.94-1.71,11.84,6.49,10.49,12.64,8.01,1.27-.5,5.56-2.27,5.56-2.27,0,0,0,2.77-2.34,3.9-1.81.85-3.56,1.56-5.42,2.2-7.56,2.48-13.03-.5-12.45-8.72,0,0-14.25,25.81-19.91,34.45l-3.51,1.56c-1.46.71-2-.35-1.32-1.56l25.96-44.8ZM334.61,109.98c3.03-5.32,4.69-8.44,4.69-8.44.34-.64.2-.85-.29-.43-6.34,5.67-15.28,20.42-20.64,37.86,0,0,12.49-22.4,16.25-28.99Z"/>
    </g>
  </g>
  <g id="Layer_7" data-name="Layer 7">
    <g>
      <path class="cls-6" d="M122.58,14.22s-.19-.92.07-.99c.36-.1.62.57.62.57l1.57,3.58c.17.41.25.62.31.88l31.25,154.02s.27,1.76.28,2.35c0,.21.03.95-.31.93-.26-.02-.64-.57-.78-.78-.22-.33-.79-1.36-.79-1.36L122.58,14.22Z"/>
      <path class="cls-6" d="M126.92,14.33s-.19-.91.07-.98c.36-.1.62.57.62.57l1.56,3.57c.17.41.25.61.31.87l31.13,153.42s.27,1.75.28,2.34c0,.21.03.95-.31.92-.26-.02-.64-.57-.78-.77-.22-.33-.79-1.35-.79-1.35L126.92,14.33Z"/>
      <path class="cls-6" d="M131.4,14.45s-.19-.91.07-.98c.36-.1.62.56.62.56l1.56,3.55c.17.41.25.61.31.87l31.01,152.8s.27,1.74.28,2.33c0,.21.03.94-.3.92-.26-.02-.64-.56-.78-.77-.22-.33-.79-1.35-.79-1.35L131.4,14.45Z"/>
      <path class="cls-6" d="M135.98,14.57s-.19-.9.07-.97c.35-.1.61.56.61.56l1.55,3.54c.17.4.25.61.31.87l30.88,152.2s.27,1.74.28,2.32c0,.21.03.94-.3.91-.26-.02-.63-.56-.77-.77-.22-.32-.78-1.34-.78-1.34L135.98,14.57Z"/>
    </g>
  </g>
</svg>