<?xml version="1.0" encoding="UTF-8"?>
<svg xmlns="http://www.w3.org/2000/svg" viewBox="0 0 357.75 253.73">
  <defs>
    <style>
      .cls-1 {
        stroke-linecap: square;
        stroke-linejoin: round;
      }

      .cls-1, .cls-2, .cls-3 {
        fill: #fff;
      }

      .cls-1, .cls-3 {
        stroke: #000;
        stroke-width: .25px;
      }

      .cls-3 {
        stroke-miterlimit: 10;
      }

      .cls-4 {
        fill: #c33;
      }
    </style>
  </defs>
  <g id="Layer_8" data-name="Layer 8">
    <path d="M90.56,133.43c0-38.28,30.98-69.32,69.2-69.32s69.2,31.03,69.2,69.32-30.98,69.23-69.2,69.23-69.2-30.95-69.2-69.23Z"/>
  </g>
  <g id="Layer_3" data-name="Layer 3">
    <rect class="cls-3" x="172.04" y="207.26" width=".98" height="3.96" transform="translate(3.53 421.34) rotate(-101.94)"/>
    <path class="cls-3" d="M177.51,200.12l3.68,17.41c.05.23-.1.45-.32.5l-4.36.92c-.23.05-.45-.1-.5-.32l-3.67-17.35"/>
    <rect class="cls-3" x="169.15" y="206.49" width="2.28" height="6.61" rx=".42" ry=".42" transform="translate(-40.09 40.23) rotate(-12.06)"/>
    <rect class="cls-1" x="181.46" y="218.15" width=".91" height="30.99" transform="translate(-44.41 42.7) rotate(-11.94)"/>
    <g>
      <ellipse cx="159.76" cy="133.31" rx="69.24" ry="69.2"/>
      <path class="cls-3" d="M163.39,184.26c0-.65.99-.67,1,0,0,0-.08,8.02-.19,18.14,7.99-.51,15.61-2.35,22.63-5.34l-7.81-15.97c-.28-.58.61-1.03.9-.44,0,0,3.33,7.1,7.55,16.12,7.35-3.21,14.02-7.67,19.78-13.09l-15.52-12.22c-.51-.4.1-1.19.62-.79,0,0,6.93,5.64,15.39,12.54,6.14-5.9,11.18-12.92,14.82-20.73l-23.56-5.22c-.63-.14-.43-1.12.22-.98,0,0,11.13,2.66,23.59,5.65,3.83-8.42,6.02-17.74,6.17-27.56l-29.59,6.95c-.63.15-.87-.82-.23-.97,0,0,15.08-3.28,29.83-6.48,0-.19.01-.37.01-.56,0-10.82-2.48-21.05-6.91-30.18l-29.28,23.65c-.5.4-1.14-.36-.63-.78,0,0,16.4-12.79,29.73-23.2-5.16-10.5-12.91-19.5-22.42-26.18l-18.91,39.92c-.28.58-1.18.17-.9-.43,0,0,11.84-23.94,19.6-39.64-9.91-6.91-21.7-11.28-34.46-12.21l.31,48.35c0,.65-.99.67-1,0,0,0,.33-31.33.51-48.37-1.62-.11-3.25-.19-4.89-.19-11.46,0-22.26,2.8-31.78,7.73l21.53,43.99c.28.58-.61,1.03-.9.44,0,0-13.62-29.06-20.79-44.35-11.14,5.8-20.5,14.53-27.06,25.18l36.04,28.37c.51.4-.1,1.19-.62.79,0,0-22.04-17.96-35.55-28.97-6.04,9.88-9.66,21.41-10.07,33.74l38.97,8.63c.63.14.43,1.12-.22.98,0,0-21.98-5.26-38.76-9.28-.02.66-.05,1.32-.05,1.99,0,10.65,2.41,20.74,6.71,29.75l31.93-7.5c.63-.15.87.82.23.97,0,0-16.58,3.6-31.97,6.94,4.32,8.9,10.49,16.74,18.01,23.01l20.3-16.4c.5-.4,1.14.36.63.78,0,0-9.85,7.69-20.49,15.99,6.74,5.53,14.55,9.82,23.07,12.5l9.01-19.03c.28-.58,1.18-.17.9.43,0,0-4.23,8.56-9.29,18.79,6.39,1.95,13.17,3,20.2,3,1.26,0,2.51-.04,3.76-.1l-.12-18.19Z"/>
    </g>
  </g>
  <g id="Layer_4" data-name="Layer 4">
    <g>
      <path class="cls-2" d="M200.74,144.27c6.22,23.62-8.28,44.23-31.77,49.09-22.26,4.61-42-9.37-46.19-34.65-4-24.13,12.98-44.7,32.65-49.16,23.52-5.33,38.71,9.65,45.31,34.71Z"/>
      <path class="cls-4" d="M200.98,144.2c4.54,16.44-.32,34.82-15,44.57-27.14,17.5-57.93,1.71-64.34-28.88-7.3-29.09,19.7-59.16,49.64-53.19,17.6,3.67,25.71,21.79,29.7,37.5h0ZM200.49,144.33c-3.82-14.91-13.96-30.38-30.13-32.87-15.17-2.35-30.86,5.53-39.34,18.31-8.88,12.86-9.44,30.91-1.96,44.75,4.91,9.37,14.34,16.43,24.89,17.67,15.29,1.76,31.68-5.18,40.93-17.52,6.44-8.45,8.48-20.03,5.61-30.33h0Z"/>
    </g>
    <path class="cls-4" d="M355.3,88.69c.99,2.9.33,4.57-2.38,5.33-2.57.72-6.44.33-7.2-2.78-.73-2.98,1.67-5.32,3.94-6,2.71-.82,4.6.38,5.65,3.45Z"/>
  </g>
  <g id="Layer_1" data-name="Layer 1">
    <path class="cls-4" d="M142.95,134c1.14-1.12,2.34-2.01,3.54-2.9,1.34-.27,2.67-.61,4.01-.91l8-1.87c2.63-.61,9.45-2.2,12-2.8,1.47.28,2.94.54,4.46,1.02-1.15,1.09-2.35,1.98-3.55,2.88-2.52.59-9.39,2.19-12,2.8,0,0-8,1.87-8,1.87-1.33.32-2.67.6-4,.95-1.47-.27-2.94-.53-4.46-1.03h0Z"/>
  </g>
  <g id="Layer_2" data-name="Layer 2">
    <g>
      <path class="cls-4" d="M133.17,130.39l-60.98,43.81c-2.38,1.7-4.57,1.63-4.67-.85l-2.63-59.9-42.72,77.77c-2.13,3.9-4.12,3.54-4.91-.07l-6.8-31.33c-.94-4.39-.3-5.67,3.18-5.67h25.26l26-45.09-.35-8.86,1.44-1.84c1.24-1.56,2.93-1.49,2.93-.43l2.98,70.75c.05,1.21.79,1.21,1.49.71l64.41-46.86c.45-.35.89-.57,3.52-1.56,1.49-.64,2.04.35,1.34,1.56l-27.59,47.71,29.13-11.63s0,2.84-2.43,3.83l-32.7,13.33c-1.54.64-2.03-.35-1.34-1.56l25.46-43.81ZM13.13,157.33c-.99,0-1.29.64-.99,1.7l7.25,24.53c.45,1.49,1.34,1.77,2.08.5l15.53-26.73H13.13Z"/>
      <path class="cls-4" d="M238.57,157.4c-3.32,0-3.03-3.19-3.03-3.62,7.89-1.99,36.97-9.57,58.6-24.67,4.52-3.19,4.47-3.26-.69-3.26l-49.37.28-37.86,65.15c-2.23,3.83-4.17,3.47-4.96-.07l-14.69-64.79c-.99-4.4-.3-5.67,3.18-5.67h52.55l13.2-22.61,3.52-1.56c1.54-.71,2.03.35,1.34,1.56l-13.15,22.61h55.87c10.77,0,10.67,2.41,1.04,8.93-25.21,17.08-54.48,24.17-55.92,24.53h8.73c5.61,0,6.1.99,7.24,6.66l2.08,10.28,31.66-12.55s0,2.84-2.38,3.83l-30.96,12.97c-1.14.5-2.33-.35-2.53-1.56l-2.68-14.39c-.3-1.63-.84-2.06-2.38-2.06h-18.41ZM205.47,184.13l33.69-57.99-49.27.28c-.99,0-1.29.64-.99,1.7l14.54,55.51c.35,1.49,1.29,1.77,2.03.5Z"/>
      <path class="cls-4" d="M321.04,145.49c5.76-21.69,15.48-40.91,25.6-48.14,2.38-1.7,3.77-1.84,3.97-.28.25,1.56-.69,4.47-3.32,9.71-4.17,8.29-23.57,42.68-25.46,45.94-1.74,11.84,6.6,10.49,12.85,8.01,1.29-.5,5.66-2.27,5.66-2.27,0,0,0,2.76-2.38,3.9-1.84.85-3.62,1.56-5.51,2.2-7.69,2.48-13.25-.5-12.65-8.72,0,0-14.49,25.8-20.25,34.45l-3.57,1.56c-1.49.71-2.03-.35-1.34-1.56l26.4-44.8ZM341.29,109.83c3.08-5.32,4.76-8.44,4.76-8.44.35-.64.2-.85-.3-.42-6.45,5.67-15.53,20.42-20.99,37.86,0,0,12.7-22.4,16.52-29Z"/>
    </g>
  </g>
  <g id="Layer_7" data-name="Layer 7">
    <g>
      <path class="cls-4" d="M125.78,3.31s-.22-.99.04-1.07c.36-.12.64.6.64.6l1.67,3.83c.18.44.27.66.34.94l35.47,165.93s.32,1.9.34,2.54c0,.23.06,1.03-.28,1.01-.26-.01-.66-.6-.8-.82-.23-.35-.83-1.45-.83-1.45L125.78,3.31Z"/>
      <path class="cls-4" d="M130.12,3.31s-.21-.98.04-1.07c.35-.12.64.59.64.59l1.66,3.82c.18.44.27.66.33.94l35.33,165.28s.32,1.89.34,2.53c0,.23.06,1.02-.28,1.01-.26-.01-.65-.59-.8-.82-.23-.35-.83-1.44-.83-1.44L130.12,3.31Z"/>
      <path class="cls-4" d="M134.6,3.3s-.21-.98.04-1.06c.35-.12.63.59.63.59l1.65,3.8c.18.44.27.65.33.93l35.18,164.61s.32,1.88.34,2.52c0,.23.06,1.02-.28,1-.26-.01-.65-.59-.8-.81-.23-.35-.82-1.44-.82-1.44L134.6,3.3Z"/>
      <path class="cls-4" d="M139.18,3.3s-.21-.97.04-1.06c.35-.12.63.59.63.59l1.65,3.79c.18.43.26.65.33.93l35.05,163.96s.32,1.87.34,2.51c0,.23.06,1.02-.28,1-.26-.01-.65-.59-.79-.81-.23-.35-.82-1.43-.82-1.43L139.18,3.3Z"/>
    </g>
  </g>
</svg>