<?xml version="1.0" encoding="UTF-8"?>
<svg xmlns="http://www.w3.org/2000/svg" viewBox="0 0 357.75 260.71">
  <defs>
    <style>
      .cls-1 {
        stroke-linecap: square;
        stroke-width: 2px;
      }

      .cls-1, .cls-2 {
        stroke: #000;
        stroke-linejoin: round;
      }

      .cls-2 {
        stroke-linecap: round;
        stroke-width: .25px;
      }

      .cls-3 {
        fill: #fff;
      }

      .cls-4 {
        fill: #c33;
      }
    </style>
  </defs>
  <g id="Layer_8" data-name="Layer 8">
    <ellipse class="cls-3" cx="154.1" cy="138.53" rx="69.18" ry="69.24"/>
  </g>
  <g id="Layer_3" data-name="Layer 3">
    <path d="M223.36,138.54c0,.1-.01.2-.01.3-14.8,3.09-29.96,6.25-29.97,6.25-.54.13-.87.67-.73,1.21.13.53.67.86,1.2.73l29.48-7.19c-.18,9.63-2.32,18.76-6.04,27.04-12.47-3.09-23.63-5.86-23.63-5.86-.54-.12-1.07.23-1.19.77-.11.54.23,1.07.77,1.18l23.55,5.01c-3.57,7.6-8.49,14.44-14.45,20.22-8.43-6.99-15.34-12.71-15.34-12.71-.44-.34-1.06-.26-1.4.18-.34.43-.26,1.06.18,1.4l15.59,12.06c-5.61,5.24-12.1,9.56-19.21,12.72-4.16-9.07-7.43-16.21-7.44-16.21-.24-.5-.84-.7-1.34-.45-.49.24-.69.85-.45,1.34l7.95,15.88c-6.84,2.87-14.23,4.65-21.96,5.18.19-10.12.34-18.13.34-18.14,0-.55-.46-.99-1.02-.98-.55,0-.99.46-.37,1.01v18.21c-1.47.06-2.61.09-3.75.09-6.92,0-13.59-1.03-19.89-2.91,5.14-10.18,9.44-18.68,9.44-18.69.23-.5.01-1.09-.49-1.33-.5-.23-1.09,0-1.33.49l-8.87,19.14c-8.3-2.66-15.92-6.84-22.53-12.22,10.7-8.2,20.59-15.79,20.59-15.79.43-.35.49-.98.14-1.41s-.98-.49-1.41-.14l-20.2,16.61c-7.36-6.19-13.41-13.89-17.68-22.62,15.41-3.21,31.99-6.67,31.99-6.67.54-.13.87-.67.74-1.21-.13-.53-.68-.86-1.21-.73l-31.92,7.78c-4.23-8.96-6.61-18.97-6.61-29.54,0-.62.03-1.22.04-1.83,16.75,4.16,38.67,9.6,38.68,9.6.54.12,1.07-.23,1.19-.77.11-.54-.23-1.07-.77-1.18l-39.08-8.31c.43-12.24,4.02-23.66,10.01-33.48,13.41,11.12,35.3,29.27,35.31,29.27.44.34,1.07.26,1.4-.18.34-.43.26-1.06-.18-1.4l-36.26-28.04-.03-.03c6.54-10.59,15.85-19.26,26.92-25.05,7.04,15.36,20.42,44.55,20.43,44.56.24.49.85.69,1.34.44.49-.24.69-.85.45-1.34l-21.91-43.81c9.5-4.91,20.27-7.69,31.7-7.69,1.62,0,3.21.07,4.8.18-.32,17.04-.92,48.39-.92,48.4,0,.55.47.99,1.02.98.55,0,.99-.46.85-1.01v-48.34c12.09.94,23.82,5.28,33.68,12.13l-.03.06c-7.89,15.63-19.93,39.44-19.93,39.45-.23.5,0,1.1.49,1.33s1.09.01,1.33-.49l18.56-40.06c9.41,6.64,17.08,15.54,22.23,25.94-13.44,10.3-29.98,22.99-29.98,22.99-.43.35-.49.98-.14,1.41s.98.49,1.41.14l29.05-23.88c4.37,9.08,6.82,19.26,6.82,30.01Z"/>
  </g>
  <g id="Layer_4" data-name="Layer 4">
    <g>
      <path d="M195.09,149.49c6.22,23.62-8.28,44.23-31.77,49.09-22.26,4.61-42-9.37-46.19-34.65-4-24.13,12.98-44.7,32.65-49.16,23.52-5.33,38.71,9.65,45.31,34.71Z"/>
      <path class="cls-4" d="M195.34,149.42c4.54,16.44-.32,34.82-15,44.57-27.14,17.5-57.93,1.71-64.34-28.88-7.3-29.09,19.7-59.16,49.64-53.19,17.6,3.67,25.71,21.79,29.7,37.5h0ZM194.85,149.55c-3.82-14.91-13.96-30.38-30.13-32.87-15.17-2.35-30.86,5.53-39.34,18.31-8.88,12.86-9.44,30.91-1.96,44.75,4.91,9.37,14.34,16.43,24.89,17.67,15.29,1.76,31.68-5.18,40.93-17.52,6.44-8.45,8.48-20.03,5.61-30.33h0Z"/>
    </g>
    <path class="cls-4" d="M349.66,93.91c.99,2.9.33,4.57-2.38,5.33-2.57.72-6.44.33-7.2-2.78-.73-2.98,1.67-5.32,3.94-6,2.71-.82,4.6.38,5.65,3.45Z"/>
  </g>
  <g id="Layer_1" data-name="Layer 1">
    <path class="cls-4" d="M137.31,139.22c1.14-1.12,2.34-2.01,3.54-2.9,1.34-.27,2.67-.61,4.01-.91l8-1.87c2.63-.61,9.45-2.2,12-2.8,1.47.28,2.94.54,4.46,1.02-1.15,1.09-2.35,1.98-3.55,2.88-2.52.59-9.39,2.19-12,2.8l-8,1.87c-1.33.32-2.67.6-4,.95-1.47-.27-2.94-.53-4.46-1.03h0Z"/>
    <g>
      <line class="cls-1" x1="174.62" y1="224.06" x2="180.76" y2="253.13"/>
      <g>
        <line x1="181.46" y1="256.41" x2="180.16" y2="250.28"/>
        <path d="M181.46,256.41c-.46-.17-.8-.36-1.15-.56-.09-.52-.37-1.77-.48-2.3-.1-.51-.39-1.81-.49-2.3.24-.32.48-.64.82-.97.45.17.79.37,1.14.56.1.48.38,1.8.49,2.3.12.54.37,1.78.5,2.3-.24.32-.47.63-.83.98h0Z"/>
      </g>
      <rect class="cls-2" x="169.4" y="200.46" width="5.29" height="22.9" rx=".42" ry=".42" transform="translate(-40.13 40.19) rotate(-11.94)"/>
      <rect class="cls-2" x="168.62" y="210.52" width="1.07" height="6.64" rx=".42" ry=".42" transform="translate(-5.05 423.58) rotate(-101.94)"/>
      <rect class="cls-2" x="164.88" y="211.19" width="2.28" height="6.61" rx=".42" ry=".42" transform="translate(-41.17 39.44) rotate(-12.06)"/>
    </g>
  </g>
  <g id="Layer_2" data-name="Layer 2">
    <g>
      <path class="cls-4" d="M127.43,136.62l-61.02,43.81c-2.38,1.7-4.57,1.63-4.67-.85l-2.63-59.9-42.75,77.77c-2.13,3.9-4.12,3.54-4.92-.07l-6.8-31.33c-.94-4.4-.3-5.67,3.18-5.67h25.27l26.02-45.09-.35-8.86,1.44-1.84c1.24-1.56,2.93-1.49,2.93-.43l2.98,70.75c.05,1.21.79,1.21,1.49.71l64.45-46.86c.45-.35.89-.57,3.53-1.56,1.49-.64,2.04.35,1.34,1.56l-27.61,47.71,29.15-11.63s0,2.84-2.43,3.83l-32.72,13.33c-1.54.64-2.04-.35-1.34-1.56l25.47-43.81ZM7.32,163.55c-.99,0-1.29.64-.99,1.7l7.25,24.53c.45,1.49,1.34,1.77,2.08.5l15.54-26.73H7.32Z"/>
      <path class="cls-4" d="M232.88,163.63c-3.33,0-3.03-3.19-3.03-3.62,7.89-1.98,36.99-9.57,58.64-24.67,4.52-3.19,4.47-3.26-.7-3.26l-49.4.28-37.88,65.15c-2.23,3.83-4.17,3.47-4.96-.07l-14.7-64.8c-.99-4.4-.3-5.67,3.18-5.67h52.58l13.21-22.61,3.53-1.56c1.54-.71,2.04.35,1.34,1.56l-13.16,22.61h55.91c10.77,0,10.67,2.41,1.04,8.93-25.22,17.08-54.52,24.17-55.96,24.53h8.74c5.61,0,6.11.99,7.25,6.66l2.09,10.28,31.68-12.55s0,2.84-2.38,3.83l-30.98,12.97c-1.14.5-2.33-.35-2.53-1.56l-2.68-14.39c-.3-1.63-.84-2.06-2.38-2.06h-18.42ZM199.76,190.35l33.71-57.99-49.3.28c-.99,0-1.29.64-.99,1.7l14.55,55.51c.35,1.49,1.29,1.77,2.04.5Z"/>
      <path class="cls-4" d="M315.39,151.72c5.76-21.69,15.49-40.9,25.62-48.14,2.38-1.7,3.77-1.84,3.97-.28.25,1.56-.7,4.47-3.33,9.71-4.17,8.29-23.58,42.68-25.47,45.94-1.74,11.84,6.6,10.49,12.86,8.01,1.29-.5,5.66-2.27,5.66-2.27,0,0,0,2.77-2.38,3.9-1.84.85-3.62,1.56-5.51,2.2-7.7,2.48-13.26-.5-12.66-8.72,0,0-14.5,25.81-20.26,34.45l-3.58,1.56c-1.49.71-2.04-.35-1.34-1.56l26.42-44.8ZM335.65,116.06c3.08-5.32,4.77-8.44,4.77-8.44.35-.64.2-.85-.3-.43-6.46,5.67-15.54,20.42-21,37.86,0,0,12.71-22.4,16.53-28.99Z"/>
    </g>
  </g>
  <g id="Layer_7" data-name="Layer 7">
    <g>
      <path class="cls-4" d="M119.59,6.54s-.22-.99.04-1.07c.36-.12.64.6.64.6l1.67,3.83c.18.44.27.66.34.94l35.47,165.93s.32,1.9.34,2.54c0,.23.06,1.03-.28,1.01-.26-.01-.66-.6-.8-.82-.23-.35-.83-1.45-.83-1.45L119.59,6.54Z"/>
      <path class="cls-4" d="M123.93,6.54s-.21-.98.04-1.07c.35-.12.64.59.64.59l1.66,3.82c.18.44.27.66.33.94l35.33,165.28s.32,1.89.34,2.53c0,.23.06,1.02-.28,1.01-.26-.01-.65-.59-.8-.82-.23-.35-.83-1.44-.83-1.44L123.93,6.54Z"/>
      <path class="cls-4" d="M128.42,6.53s-.21-.98.04-1.06c.35-.12.63.59.63.59l1.65,3.8c.18.44.27.65.33.93l35.18,164.61s.32,1.88.34,2.52c0,.23.06,1.02-.28,1-.26-.01-.65-.59-.8-.81-.23-.35-.82-1.44-.82-1.44L128.42,6.53Z"/>
      <path class="cls-4" d="M133,6.53s-.21-.97.04-1.06c.35-.12.63.59.63.59l1.65,3.79c.18.43.26.65.33.93l35.05,163.96s.32,1.87.34,2.51c0,.23.06,1.02-.28,1-.26-.01-.65-.59-.79-.81-.23-.35-.82-1.43-.82-1.43L133,6.53Z"/>
    </g>
  </g>
</svg>